<svg version="1.1" xmlns="http://www.w3.org/2000/svg" xmlns:xlink="http://www.w3.org/1999/xlink" width="500" height="500"><defs><linearGradient x1="88.8331" y1="203.40743" x2="88.8331" y2="296.59257" gradientUnits="userSpaceOnUse" id="color-1"><stop offset="0" stop-color="#1a1e1b"></stop><stop offset="1" stop-color="#272d29"></stop></linearGradient></defs><g data-paper-data="{&quot;description&quot;:&quot;Logo for Croquis\n================\n\nThis logo was generated by MarkMaker at http://emblemmatic.org/markmaker/ and may be composed of elements designed by others.\n\nThe font is Reenie Beanie designed by James Grieshaber and released under the OFL license via Google Fonts: https://www.google.com/fonts/specimen/Reenie%20Beanie. The font includes this copyright statement: Copyright (c) 2010 Typeco (james@typeco.com). All rights reserved.\n\nMarkMaker uses semantic data from the Princeton University WordNet database http://wordnet.princeton.edu and font descriptions from Google Fonts https://www.google.com/fonts.&quot;}" fill="none" fill-rule="nonzero" stroke="none" stroke-width="none" stroke-linecap="butt" stroke-linejoin="miter" stroke-miterlimit="10" stroke-dasharray="" stroke-dashoffset="0" font-family="none" font-weight="none" font-size="none" text-anchor="none" style="mix-blend-mode: normal"><path d="M50,250c0,-110.45695 89.54305,-200 200,-200c110.45695,0 200,89.54305 200,200c0,110.45695 -89.54305,200 -200,200c-110.45695,0 -200,-89.54305 -200,-200z" fill="none" stroke="#202522" stroke-width="3.5"></path><g data-paper-data="{&quot;elementType&quot;:&quot;logo&quot;}" fill="url(#color-1)" stroke="none" stroke-width="1"><g data-paper-data="{&quot;elementType&quot;:&quot;text&quot;}"><g data-paper-data="{&quot;baseline&quot;:48.900000000000006,&quot;elementType&quot;:&quot;row&quot;}"><g data-paper-data="{&quot;baselineProportion&quot;:0.7849117174959871,&quot;fontSize&quot;:100,&quot;baseline&quot;:48.900000000000006,&quot;elementType&quot;:&quot;word&quot;}"><path d="M153.15028,242.2969c0,1.39603 -0.37394,2.84192 -1.12181,4.33767c-0.74787,1.49575 -1.67025,2.9915 -2.76713,4.48725c-1.09688,1.49575 -2.29348,2.91671 -3.5898,4.26288c-1.29632,1.34617 -2.49291,2.51784 -3.5898,3.51501c-2.69235,2.3932 -5.45948,4.66175 -8.3014,6.80566c-2.84192,2.14391 -5.78356,4.06345 -8.82492,5.75863c-3.04136,1.69518 -6.20736,3.04136 -9.498,4.03852c-3.29065,0.99717 -6.73087,1.49575 -10.32066,1.49575c-10.86911,0 -16.30366,-5.58413 -16.30366,-16.75238c0,-1.09688 0.44872,-3.24079 1.34617,-6.43172c0.89745,-3.19093 2.04419,-6.83058 3.44022,-10.91896c1.39603,-4.08838 3.04136,-8.37619 4.93597,-12.86344c1.89461,-4.48725 3.83909,-8.60055 5.83342,-12.33993c1.99433,-3.73937 3.96373,-6.80566 5.90821,-9.19885c1.94447,-2.3932 3.7643,-3.5898 5.45948,-3.5898c1.09688,0 1.91954,0.34901 2.46799,1.04702c0.54844,0.69802 0.82266,1.44589 0.82266,2.24362c-0.09972,0.5983 -0.79773,1.86969 -2.09405,3.81416c-1.29632,1.94447 -2.64249,3.91388 -4.03852,5.90821c-0.19943,0.29915 -0.54844,0.79773 -1.04702,1.49575c-0.49858,0.69802 -0.99717,1.39603 -1.49575,2.09405c-0.5983,0.79773 -1.1966,1.64532 -1.7949,2.54277c-0.39887,0.69802 -1.27139,2.46799 -2.61756,5.30991c-1.34617,2.84192 -2.76713,6.13257 -4.26288,9.87194c-1.49575,3.73937 -2.84192,7.62832 -4.03852,11.66684c-1.1966,4.03852 -1.7949,7.55353 -1.7949,10.54503c0,1.69518 0.37394,3.04136 1.12181,4.03852c0.74787,0.99717 1.64532,1.74504 2.69235,2.24362c1.04702,0.49858 2.14391,0.82266 3.29065,0.97224c1.14674,0.14957 2.16884,0.22436 3.06628,0.22436c3.68951,0 7.60339,-0.82266 11.74163,-2.46799c4.13824,-1.64532 8.10197,-3.81416 11.8912,-6.50651c3.78923,-2.69235 7.27931,-5.80849 10.47024,-9.34843c3.19093,-3.53994 5.68384,-7.20452 7.47874,-10.99375c0.39887,-0.69802 0.82266,-1.14674 1.27139,-1.34617c0.44872,-0.19943 0.87252,-0.29915 1.27139,-0.29915c0.79773,0 1.49575,0.54844 2.09405,1.64532c0.5983,1.09688 0.89745,1.99433 0.89745,2.69235z" data-paper-data="{&quot;elementType&quot;:&quot;letter&quot;,&quot;baseline&quot;:47.900000000000006,&quot;baselineProportion&quot;:0.9937759336099585,&quot;fontSize&quot;:100}"></path><path d="M201.16381,230.92921c0,0.69802 -0.29915,1.27139 -0.89745,1.72011c-0.5983,0.44872 -1.29632,0.82266 -2.09405,1.12181c-0.79773,0.29915 -1.59547,0.52351 -2.3932,0.67309c-0.79773,0.14957 -1.44589,0.22436 -1.94447,0.22436c-1.49575,0 -2.49291,-0.09972 -2.9915,-0.29915c-0.49858,-0.19943 -0.89745,-0.29915 -1.1966,-0.29915c-2.49291,0 -4.48725,0.19943 -5.98299,0.5983c-1.49575,0.39887 -2.66742,1.04702 -3.51501,1.94447c-0.84759,0.89745 -1.39603,2.01926 -1.64532,3.36543c-0.24929,1.34617 -0.37394,2.96657 -0.37394,4.86118c0,3.19093 0.12465,5.7337 0.37394,7.62832c0.24929,1.89461 0.49858,3.44022 0.74787,4.63682c0.24929,1.1966 0.49858,2.11898 0.74787,2.76713c0.24929,0.64816 0.37394,1.27139 0.37394,1.86969c0,0.79773 -0.4238,1.64532 -1.27139,2.54277c-0.84759,0.89745 -1.62039,1.34617 -2.31841,1.34617c-1.1966,0 -2.26855,-1.07195 -3.21586,-3.21586c-0.94731,-2.14391 -1.74504,-4.68668 -2.3932,-7.62832c-0.64816,-2.94164 -1.17167,-5.85835 -1.57054,-8.75013c-0.39887,-2.89178 -0.5983,-5.08555 -0.5983,-6.58129c0,-1.69518 0.14957,-3.31558 0.44872,-4.86118c0.29915,-1.54561 0.69802,-2.89178 1.1966,-4.03852c0.49858,-1.14674 1.04702,-2.06912 1.64532,-2.76713c0.5983,-0.69802 1.1966,-1.04702 1.7949,-1.04702c0.49858,0 0.89745,0.1745 1.1966,0.52351c0.29915,0.34901 0.54844,0.74787 0.74787,1.1966c0.19943,0.44872 0.4238,0.84759 0.67309,1.1966c0.24929,0.34901 0.57337,0.52351 0.97224,0.52351c0.89745,0 2.34334,-0.44872 4.33767,-1.34617c1.99433,-0.89745 4.43739,-1.34617 7.32917,-1.34617c2.69235,0 4.71161,0.07479 6.05778,0.22436c1.34617,0.14957 2.66742,0.47365 3.96373,0.97224c0.29915,0.09972 0.67309,0.32408 1.12181,0.67309c0.44872,0.34901 0.67309,0.87252 0.67309,1.57054z" data-paper-data="{&quot;elementType&quot;:&quot;letter&quot;,&quot;baseline&quot;:33.30000000000001,&quot;baselineProportion&quot;:1.2807692307692304,&quot;fontSize&quot;:100}"></path><path d="M239.9037,244.24137c0,2.19376 -0.29915,4.28781 -0.89745,6.28214c-0.5983,1.99433 -1.39603,3.73937 -2.3932,5.23512c-0.99717,1.49575 -2.16884,2.66742 -3.51501,3.51501c-1.34617,0.84759 -2.81699,1.27139 -4.41246,1.27139c-2.79206,0 -4.98583,-0.79773 -6.58129,-2.3932c-1.59547,-1.59547 -2.81699,-3.44022 -3.66458,-5.53427c-0.84759,-2.09405 -1.39603,-4.21303 -1.64532,-6.35693c-0.24929,-2.14391 -0.37394,-3.7643 -0.37394,-4.86118c0,-1.7949 0.27422,-3.81416 0.82266,-6.05778c0.54844,-2.24362 1.29632,-4.31274 2.24362,-6.20736c0.94731,-1.89461 2.01926,-3.49008 3.21586,-4.7864c1.1966,-1.29632 2.44306,-1.94447 3.73937,-1.94447c0.29915,0 0.7728,0.09972 1.42096,0.29915c0.64816,0.19943 1.32124,0.49858 2.01926,0.89745c0.69802,0.39887 1.32124,0.89745 1.86969,1.49575c0.54844,0.5983 0.92238,1.29632 1.12181,2.09405c1.09688,0.09972 2.19376,0.49858 3.29065,1.1966c1.09688,0.69802 1.69518,1.24646 1.7949,1.64532c0.79773,2.59263 1.32124,5.18526 1.57054,7.77789c0.24929,2.59263 0.37394,4.73654 0.37394,6.43172M233.17283,241.54902c0,-1.49575 -0.14957,-3.06628 -0.44872,-4.71161c-0.29915,-1.64532 -0.89745,-3.31558 -1.7949,-5.01076c-0.19943,0.09972 -0.44872,0.14957 -0.74787,0.14957c-0.39887,0 -0.72295,-0.04986 -0.97224,-0.14957c-0.24929,-0.09972 -0.47365,-0.14957 -0.67309,-0.14957c-1.1966,0 -2.14391,0.32408 -2.84192,0.97224c-0.69802,0.64816 -1.22153,1.49575 -1.57054,2.54277c-0.34901,1.04702 -0.57337,2.16884 -0.67309,3.36543c-0.09972,1.1966 -0.14957,2.34334 -0.14957,3.44022c0,1.09688 0.04986,2.31841 0.14957,3.66458c0.09972,1.34617 0.32408,2.61756 0.67309,3.81416c0.34901,1.1966 0.82266,2.21869 1.42096,3.06628c0.5983,0.84759 1.39603,1.27139 2.3932,1.27139c0.99717,0 1.84476,-0.52351 2.54277,-1.57054c0.69802,-1.04702 1.24646,-2.26855 1.64532,-3.66458c0.39887,-1.39603 0.67309,-2.76713 0.82266,-4.11331c0.14957,-1.34617 0.22436,-2.31841 0.22436,-2.91671z" data-paper-data="{&quot;elementType&quot;:&quot;letter&quot;,&quot;baseline&quot;:36.2,&quot;baselineProportion&quot;:1.419607843137255,&quot;fontSize&quot;:100}"></path><path d="M290.31042,290.46c0,0.29915 -0.04986,0.79773 -0.14957,1.49575c-0.09972,0.69802 -0.27422,1.3711 -0.52351,2.01926c-0.24929,0.64816 -0.62323,1.24646 -1.12181,1.7949c-0.49858,0.54844 -1.14674,0.82266 -1.94447,0.82266c-2.29348,0 -3.78923,-0.69802 -4.48725,-2.09405c-0.69802,-1.39603 -1.04702,-2.94164 -1.04702,-4.63682c0,-0.39887 -0.09972,-1.04702 -0.29915,-1.94447c-0.19943,-0.89745 -0.39887,-1.89461 -0.5983,-2.9915c-0.19943,-1.09688 -0.39887,-2.19376 -0.5983,-3.29065c-0.19943,-1.09688 -0.29915,-2.04419 -0.29915,-2.84192c0,-1.49575 -0.07479,-3.19093 -0.22436,-5.08555c-0.14957,-1.89461 -0.34901,-3.81416 -0.5983,-5.75863c-0.24929,-1.94447 -0.49858,-3.81416 -0.74787,-5.60906c-0.24929,-1.7949 -0.47365,-3.39036 -0.67309,-4.7864l-0.44872,-0.44872c-1.09688,0.69802 -2.06912,1.54561 -2.91671,2.54277c-0.84759,0.99717 -1.69518,1.94447 -2.54277,2.84192c-0.84759,0.89745 -1.74504,1.64532 -2.69235,2.24362c-0.94731,0.5983 -2.06912,0.89745 -3.36543,0.89745c-1.7949,0 -3.39036,-0.62323 -4.7864,-1.86969c-1.39603,-1.24646 -2.54277,-2.71728 -3.44022,-4.41246c-0.89745,-1.69518 -1.57054,-3.41529 -2.01926,-5.16033c-0.44872,-1.74504 -0.67309,-3.11614 -0.67309,-4.11331c0,-2.19376 0.47365,-4.68668 1.42096,-7.47874c0.94731,-2.79206 2.26855,-5.40962 3.96373,-7.85268c1.69518,-2.44306 3.71444,-4.51217 6.05778,-6.20736c2.34334,-1.69518 4.9609,-2.54277 7.85268,-2.54277c1.09688,0 2.09405,0.29915 2.9915,0.89745c0.89745,0.5983 1.72011,1.32124 2.46799,2.16884c0.74787,0.84759 1.39603,1.72011 1.94447,2.61756c0.54844,0.89745 1.02209,1.59547 1.42096,2.09405c1.09688,1.29632 1.94447,2.41813 2.54277,3.36543c0.5983,0.94731 0.89745,2.11898 0.89745,3.51501c0,0.29915 -0.14957,1.1966 -0.44872,2.69235c-0.29915,1.49575 -0.44872,2.74221 -0.44872,3.73937c0,4.08838 0.12465,8.25155 0.37394,12.4895c0.24929,4.23795 0.57337,8.17676 0.97224,11.81641c0.39887,3.63965 0.79773,6.80566 1.1966,9.498c0.39887,2.69235 0.69802,4.5371 0.89745,5.53427c0.19943,0.79773 0.5983,1.32124 1.1966,1.57054c0.5983,0.24929 0.89745,1.07195 0.89745,2.46799M277.29741,240.20285c-0.09972,-0.99717 -0.47365,-2.24362 -1.12181,-3.73937c-0.64816,-1.49575 -1.9694,-2.24362 -3.96373,-2.24362c-1.69518,0 -3.24079,0.72295 -4.63682,2.16884c-1.39603,1.44589 -2.59263,3.14107 -3.5898,5.08555c-0.99717,1.94447 -1.74504,3.83909 -2.24362,5.68384c-0.49858,1.84476 -0.74787,3.21586 -0.74787,4.11331c0,0.19943 0.07479,0.64816 0.22436,1.34617c0.14957,0.69802 0.34901,1.44589 0.5983,2.24362c0.24929,0.79773 0.57337,1.49575 0.97224,2.09405c0.39887,0.5983 0.84759,0.89745 1.34617,0.89745c1.1966,0 2.54277,-0.82266 4.03852,-2.46799c1.49575,-1.64532 2.91671,-3.51501 4.26288,-5.60906c1.34617,-2.09405 2.49291,-4.08838 3.44022,-5.98299c0.94731,-1.89461 1.42096,-3.09121 1.42096,-3.5898z" data-paper-data="{&quot;elementType&quot;:&quot;letter&quot;,&quot;baseline&quot;:33.80000000000001,&quot;baselineProportion&quot;:0.7161016949152542,&quot;fontSize&quot;:100}"></path><path d="M348.34547,251.72011c0,0.89745 -0.5983,1.84476 -1.7949,2.84192c-1.1966,0.99717 -2.59263,1.91954 -4.1881,2.76713c-1.59547,0.84759 -3.21586,1.57054 -4.86118,2.16884c-1.64532,0.5983 -2.86685,0.89745 -3.66458,0.89745c-0.89745,0 -1.86969,-0.24929 -2.91671,-0.74787c-1.04702,-0.49858 -2.04419,-1.09688 -2.9915,-1.7949c-0.94731,-0.69802 -1.76997,-1.34617 -2.46799,-1.94447c-0.69802,-0.5983 -1.14674,-0.99717 -1.34617,-1.1966c-0.29915,0.29915 -0.74787,0.89745 -1.34617,1.7949c-0.5983,0.89745 -1.32124,1.86969 -2.16884,2.91671c-0.84759,1.04702 -1.74504,1.9694 -2.69235,2.76713c-0.94731,0.79773 -1.91954,1.1966 -2.91671,1.1966c-2.59263,0 -4.83625,-1.39603 -6.73087,-4.1881c-1.89461,-2.79206 -3.46515,-5.98299 -4.71161,-9.57279c-1.24646,-3.5898 -2.19376,-7.05495 -2.84192,-10.39545c-0.64816,-3.34051 -0.97224,-5.60906 -0.97224,-6.80566c0,-0.69802 0.37394,-1.27139 1.12181,-1.72011c0.74787,-0.44872 1.32124,-0.67309 1.72011,-0.67309c1.39603,0 2.34334,0.47365 2.84192,1.42096c0.49858,0.94731 0.74787,1.9694 0.74787,3.06628c0,0.89745 0.27422,2.49291 0.82266,4.7864c0.54844,2.29348 1.22153,4.63682 2.01926,7.03002c0.79773,2.3932 1.64532,4.51217 2.54277,6.35693c0.89745,1.84476 1.69518,2.76713 2.3932,2.76713c1.29632,0 2.41813,-0.82266 3.36543,-2.46799c0.94731,-1.64532 1.72011,-3.53994 2.31841,-5.68384c0.5983,-2.14391 1.04702,-4.1881 1.34617,-6.13257c0.29915,-1.94447 0.44872,-3.21586 0.44872,-3.81416c0,-0.09972 0.02493,-0.4238 0.07479,-0.97224c0.04986,-0.54844 0.12465,-1.12181 0.22436,-1.72011c0.09972,-0.5983 0.1745,-1.14674 0.22436,-1.64532c0.04986,-0.49858 0.07479,-0.84759 0.07479,-1.04702c0,-0.69802 -0.14957,-1.17167 -0.44872,-1.42096c-0.29915,-0.24929 -0.44872,-0.7728 -0.44872,-1.57054c0,-0.5983 0.29915,-1.17167 0.89745,-1.72011c0.5983,-0.54844 1.89461,-0.82266 3.88895,-0.82266c0.79773,0 1.42096,0.22436 1.86969,0.67309c0.44872,0.44872 0.7728,0.97224 0.97224,1.57054c0.19943,0.5983 0.32408,1.17167 0.37394,1.72011c0.04986,0.54844 0.07479,0.92238 0.07479,1.12181c0,0.09972 -0.04986,0.79773 -0.14957,2.09405c-0.09972,1.29632 -0.1745,2.71728 -0.22436,4.26288c-0.04986,1.54561 -0.12465,3.01643 -0.22436,4.41246c-0.09972,1.39603 -0.14957,2.24362 -0.14957,2.54277c0,0.29915 0.14957,0.89745 0.44872,1.7949c0.29915,0.89745 0.67309,1.81983 1.12181,2.76713c0.44872,0.94731 0.97224,1.7949 1.57054,2.54277c0.5983,0.74787 1.24646,1.12181 1.94447,1.12181c1.1966,0 2.31841,-0.1745 3.36543,-0.52351c1.04702,-0.34901 2.04419,-0.74787 2.9915,-1.1966c0.94731,-0.44872 1.81983,-0.84759 2.61756,-1.1966c0.79773,-0.34901 1.54561,-0.52351 2.24362,-0.52351c0.89745,0 1.72011,0.19943 2.46799,0.5983c0.74787,0.39887 1.12181,0.89745 1.12181,1.49575z" data-paper-data="{&quot;elementType&quot;:&quot;letter&quot;,&quot;baseline&quot;:33.5,&quot;baselineProportion&quot;:1.3562753036437245,&quot;fontSize&quot;:100}"></path><path d="M368.08935,263.6861c0,0.69802 -0.52351,1.29632 -1.57054,1.7949c-1.04702,0.49858 -1.81983,0.74787 -2.31841,0.74787c-0.99717,0 -1.89461,-0.64816 -2.69235,-1.94447c-0.79773,-1.29632 -1.49575,-2.79206 -2.09405,-4.48725c-0.5983,-1.69518 -1.09688,-3.31558 -1.49575,-4.86118c-0.39887,-1.54561 -0.69802,-2.61756 -0.89745,-3.21586c-0.29915,-0.99717 -0.69802,-2.19376 -1.1966,-3.5898c-0.49858,-1.39603 -0.97224,-2.74221 -1.42096,-4.03852c-0.44872,-1.29632 -0.82266,-2.44306 -1.12181,-3.44022c-0.29915,-0.99717 -0.44872,-1.54561 -0.44872,-1.64532c0,-1.39603 0.27422,-2.69235 0.82266,-3.88895c0.54844,-1.1966 1.22153,-1.7949 2.01926,-1.7949c0.89745,0 1.84476,0.69802 2.84192,2.09405c0.99717,1.39603 1.9694,3.166 2.91671,5.30991c0.94731,2.14391 1.81983,4.48725 2.61756,7.03002c0.79773,2.54277 1.49575,4.93597 2.09405,7.17959c0.5983,2.24362 1.07195,4.1881 1.42096,5.83342c0.34901,1.64532 0.52351,2.61756 0.52351,2.91671zM363.15338,207.7451c0,0.19943 -0.34901,0.5983 -1.04702,1.1966c-0.69802,0.5983 -1.52068,1.22153 -2.46799,1.86969c-0.94731,0.64816 -1.91954,1.22153 -2.91671,1.72011c-0.99717,0.49858 -1.7949,0.74787 -2.3932,0.74787c-0.39887,0 -0.92238,-0.02493 -1.57054,-0.07479c-0.64816,-0.04986 -1.29632,-0.22436 -1.94447,-0.52351c-0.64816,-0.29915 -1.22153,-0.72295 -1.72011,-1.27139c-0.49858,-0.54844 -0.74787,-1.27139 -0.74787,-2.16884c0,-1.39603 0.49858,-2.71728 1.49575,-3.96373c0.99717,-1.24646 2.29348,-1.86969 3.88895,-1.86969c0.29915,0 0.97224,0.12465 2.01926,0.37394c1.04702,0.24929 2.11898,0.57337 3.21586,0.97224c1.09688,0.39887 2.06912,0.84759 2.91671,1.34617c0.84759,0.49858 1.27139,1.04702 1.27139,1.64532" data-paper-data="{&quot;elementType&quot;:&quot;letter&quot;,&quot;baseline&quot;:48.900000000000006,&quot;baselineProportion&quot;:1.1642857142857144,&quot;fontSize&quot;:100}"></path><path d="M411.1669,256.80566c0,1.69518 -0.57337,3.166 -1.72011,4.41246c-1.14674,1.24646 -2.59263,2.29348 -4.33767,3.14107c-1.74504,0.84759 -3.66458,1.52068 -5.75863,2.01926c-2.09405,0.49858 -4.08838,0.87252 -5.98299,1.12181c-1.89461,0.24929 -3.56487,0.39887 -5.01076,0.44872c-1.44589,0.04986 -2.36827,0.07479 -2.76713,0.07479c-2.19376,0 -3.88895,-0.34901 -5.08555,-1.04702c-1.1966,-0.69802 -1.7949,-1.94447 -1.7949,-3.73937c0,-0.5983 0.04986,-1.12181 0.14957,-1.57054c0.09972,-0.44872 0.49858,-0.67309 1.1966,-0.67309c0.29915,0 0.79773,0.07479 1.49575,0.22436c0.69802,0.14957 1.24646,0.22436 1.64532,0.22436c0.39887,0 1.67025,-0.07479 3.81416,-0.22436c2.14391,-0.14957 4.43739,-0.4238 6.88044,-0.82266c2.44306,-0.39887 4.63682,-0.97224 6.58129,-1.72011c1.94447,-0.74787 2.91671,-1.72011 2.91671,-2.91671c0,-0.19943 -1.02209,-0.82266 -3.06628,-1.86969c-2.04419,-1.04702 -5.11047,-2.81699 -9.19885,-5.30991c-3.19093,-1.99433 -5.43455,-4.01359 -6.73087,-6.05778c-1.29632,-2.04419 -1.94447,-4.81132 -1.94447,-8.3014c0,-2.19376 0.47365,-3.98866 1.42096,-5.38469c0.94731,-1.39603 2.24362,-2.49291 3.88895,-3.29065c1.64532,-0.79773 3.53994,-1.3711 5.68384,-1.72011c2.14391,-0.34901 4.41246,-0.52351 6.80566,-0.52351c0.19943,0 0.82266,0.09972 1.86969,0.29915c1.04702,0.19943 2.16884,0.52351 3.36543,0.97224c1.1966,0.44872 2.26855,0.99717 3.21586,1.64532c0.94731,0.64816 1.42096,1.3711 1.42096,2.16884c0,0.19943 -0.1745,0.49858 -0.52351,0.89745c-0.34901,0.39887 -0.92238,1.14674 -1.72011,2.24362c-0.29915,-0.09972 -0.82266,-0.24929 -1.57054,-0.44872c-0.74787,-0.19943 -1.59547,-0.4238 -2.54277,-0.67309c-0.94731,-0.24929 -1.91954,-0.44872 -2.91671,-0.5983c-0.99717,-0.14957 -1.7949,-0.22436 -2.3932,-0.22436c-2.59263,0 -4.68668,0.47365 -6.28214,1.42096c-1.59547,0.94731 -2.3932,2.76713 -2.3932,5.45948c0,1.29632 0.52351,2.49291 1.57054,3.5898c1.04702,1.09688 2.36827,2.11898 3.96373,3.06628c1.59547,0.94731 3.31558,1.89461 5.16033,2.84192c1.84476,0.94731 3.56487,1.9694 5.16033,3.06628c1.59547,1.09688 2.91671,2.26855 3.96373,3.51501c1.04702,1.24646 1.57054,2.66742 1.57054,4.26288z" data-paper-data="{&quot;elementType&quot;:&quot;letter&quot;,&quot;baseline&quot;:35.599999999999994,&quot;baselineProportion&quot;:1.1906354515050168,&quot;fontSize&quot;:100}"></path></g></g></g></g></g></svg>