<svg version="1.1" xmlns="http://www.w3.org/2000/svg" xmlns:xlink="http://www.w3.org/1999/xlink" width="500" height="500"><g data-paper-data="{&quot;description&quot;:&quot;Logo for Croquis\n================\n\nThis logo was generated by MarkMaker at http://emblemmatic.org/markmaker/ and may be composed of elements designed by others.\n\nThe font is Reenie Beanie designed by James Grieshaber and released under the OFL license via Google Fonts: https://www.google.com/fonts/specimen/Reenie%20Beanie. The font includes this copyright statement: Copyright (c) 2010 Typeco (james@typeco.com). All rights reserved.\n\nMarkMaker uses semantic data from the Princeton University WordNet database http://wordnet.princeton.edu and font descriptions from Google Fonts https://www.google.com/fonts.&quot;}" fill="none" fill-rule="nonzero" stroke="none" stroke-width="none" stroke-linecap="butt" stroke-linejoin="miter" stroke-miterlimit="10" stroke-dasharray="" stroke-dashoffset="0" font-family="none" font-weight="none" font-size="none" text-anchor="none" style="mix-blend-mode: normal"><path d="M50,250c0,-110.45695 89.54305,-200 200,-200c110.45695,0 200,89.54305 200,200c0,110.45695 -89.54305,200 -200,200c-110.45695,0 -200,-89.54305 -200,-200z" fill="#020b07" stroke-width="0"></path><g data-paper-data="{&quot;elementType&quot;:&quot;logo&quot;}" fill="#ffffff" stroke-width="1"><g data-paper-data="{&quot;elementType&quot;:&quot;text&quot;}"><g data-paper-data="{&quot;baseline&quot;:48.900000000000006,&quot;elementType&quot;:&quot;row&quot;}"><g data-paper-data="{&quot;baselineProportion&quot;:0.7849117174959871,&quot;fontSize&quot;:100,&quot;baseline&quot;:48.900000000000006,&quot;elementType&quot;:&quot;word&quot;}"><path d="M153.73924,241.64863c0,1.51352 -0.37166,3.08109 -1.11499,4.70271c-0.74333,1.62163 -1.6601,3.24325 -2.75031,4.86488c-1.09021,1.62163 -2.27953,3.16217 -3.56797,4.62163c-1.28843,1.45946 -2.47775,2.72974 -3.56797,3.81082c-2.67597,2.5946 -5.42628,5.05407 -8.25092,7.3784c-2.82464,2.32433 -5.74839,4.40542 -8.77125,6.24326c-3.02286,1.83784 -6.16961,3.29731 -9.44024,4.37839c-3.27064,1.08108 -6.68994,1.62163 -10.2579,1.62163c-10.80301,0 -16.20451,-6.05407 -16.20451,-18.16221c0,-1.18919 0.446,-3.51352 1.33799,-6.97299c0.89199,-3.45947 2.03176,-7.40542 3.4193,-11.83787c1.38754,-4.43244 3.02286,-9.0811 4.90595,-13.94598c1.88309,-4.86488 3.81574,-9.32435 5.79795,-13.37841c1.9822,-4.05406 3.93963,-7.3784 5.87228,-9.973c1.93265,-2.5946 3.74141,-3.8919 5.42628,-3.8919c1.09021,0 1.90787,0.37838 2.45298,1.13514c0.54511,0.75676 0.81766,1.56757 0.81766,2.43244c-0.09911,0.64865 -0.79288,2.02703 -2.08131,4.13515c-1.28843,2.10811 -2.62642,4.24325 -4.01396,6.40542c-0.19822,0.32433 -0.54511,0.86487 -1.04066,1.62163c-0.49555,0.75676 -0.9911,1.51352 -1.48665,2.27028c-0.59466,0.86487 -1.18932,1.78379 -1.78398,2.75676c-0.39644,0.75676 -1.26365,2.67568 -2.60164,5.75677c-1.33799,3.08109 -2.75031,6.64867 -4.23696,10.70273c-1.48665,4.05406 -2.82464,8.27029 -4.01396,12.64868c-1.18932,4.37839 -1.78398,8.18921 -1.78398,11.43246c0,1.83784 0.37166,3.29731 1.11499,4.37839c0.74333,1.08108 1.63532,1.8919 2.67597,2.43244c1.04066,0.54054 2.13087,0.89189 3.27064,1.05406c1.13977,0.16216 2.15565,0.24324 3.04764,0.24324c3.66708,0 7.55715,-0.89189 11.67022,-2.67568c4.11307,-1.78379 8.0527,-4.13515 11.81889,-7.05407c3.76619,-2.91893 7.23504,-6.29731 10.40657,-10.13516c3.17153,-3.83785 5.64928,-7.81083 7.43326,-11.91895c0.39644,-0.75676 0.81766,-1.24325 1.26365,-1.45946c0.446,-0.21622 0.86721,-0.32433 1.26365,-0.32433c0.79288,0 1.48665,0.5946 2.08131,1.78379c0.59466,1.18919 0.89199,2.16217 0.89199,2.91893z" data-paper-data="{&quot;elementType&quot;:&quot;letter&quot;,&quot;baseline&quot;:47.900000000000006,&quot;baselineProportion&quot;:0.9937759336099585,&quot;fontSize&quot;:100}"></path><path d="M201.46079,229.32427c0,0.75676 -0.29733,1.37838 -0.89199,1.86487c-0.59466,0.48649 -1.28843,0.89189 -2.08131,1.21622c-0.79288,0.32433 -1.58576,0.56757 -2.37864,0.72973c-0.79288,0.16216 -1.4371,0.24324 -1.93265,0.24324c-1.48665,0 -2.47775,-0.10811 -2.97331,-0.32433c-0.49555,-0.21622 -0.89199,-0.32433 -1.18932,-0.32433c-2.47775,0 -4.45996,0.21622 -5.94661,0.64865c-1.48665,0.43243 -2.6512,1.13514 -3.49363,2.10811c-0.84244,0.97298 -1.38754,2.18919 -1.63532,3.64866c-0.24778,1.45946 -0.37166,3.21622 -0.37166,5.27028c0,3.45947 0.12389,6.21623 0.37166,8.27029c0.24778,2.05406 0.49555,3.72974 0.74333,5.02704c0.24778,1.2973 0.49555,2.2973 0.74333,3.00001c0.24778,0.7027 0.37166,1.37838 0.37166,2.02703c0,0.86487 -0.42122,1.78379 -1.26365,2.75676c-0.84244,0.97298 -1.61054,1.45946 -2.30431,1.45946c-1.18932,0 -2.25476,-1.16217 -3.1963,-3.4865c-0.94155,-2.32433 -1.73443,-5.08109 -2.37864,-8.27029c-0.64422,-3.1892 -1.16454,-6.35137 -1.56099,-9.48651c-0.39644,-3.13514 -0.59466,-5.51353 -0.59466,-7.13515c0,-1.83784 0.14867,-3.5946 0.446,-5.27028c0.29733,-1.67568 0.69377,-3.13514 1.18932,-4.37839c0.49555,-1.24325 1.04066,-2.24325 1.63532,-3.00001c0.59466,-0.75676 1.18932,-1.13514 1.78398,-1.13514c0.49555,0 0.89199,0.18919 1.18932,0.56757c0.29733,0.37838 0.54511,0.81081 0.74333,1.2973c0.19822,0.48649 0.42122,0.91892 0.66899,1.2973c0.24778,0.37838 0.56988,0.56757 0.96632,0.56757c0.89199,0 2.32909,-0.48649 4.31129,-1.45946c1.9822,-0.97298 4.4104,-1.45946 7.2846,-1.45946c2.67597,0 4.68296,0.08108 6.02094,0.24324c1.33799,0.16216 2.6512,0.51351 3.93963,1.05406c0.29733,0.10811 0.66899,0.35135 1.11499,0.72973c0.446,0.37838 0.66899,0.94595 0.66899,1.70271z" data-paper-data="{&quot;elementType&quot;:&quot;letter&quot;,&quot;baseline&quot;:33.30000000000001,&quot;baselineProportion&quot;:1.2807692307692304,&quot;fontSize&quot;:100}"></path><path d="M239.96509,243.75674c0,2.37838 -0.29733,4.64866 -0.89199,6.81083c-0.59466,2.16217 -1.38754,4.05406 -2.37864,5.67569c-0.9911,1.62163 -2.15565,2.8919 -3.49363,3.81082c-1.33799,0.91892 -2.79986,1.37838 -4.38563,1.37838c-2.77508,0 -4.95551,-0.86487 -6.54127,-2.5946c-1.58576,-1.72973 -2.79986,-3.72974 -3.6423,-6.00002c-0.84244,-2.27028 -1.38754,-4.56758 -1.63532,-6.89191c-0.24778,-2.32433 -0.37166,-4.08109 -0.37166,-5.27028c0,-1.94595 0.27255,-4.13515 0.81766,-6.56758c0.54511,-2.43244 1.28843,-4.67569 2.22998,-6.72975c0.94155,-2.05406 2.00698,-3.78379 3.1963,-5.1892c1.18932,-1.40541 2.4282,-2.10811 3.71663,-2.10811c0.29733,0 0.7681,0.10811 1.41232,0.32433c0.64422,0.21622 1.31321,0.54054 2.00698,0.97298c0.69377,0.43243 1.31321,0.97298 1.85832,1.62163c0.54511,0.64865 0.91677,1.40541 1.11499,2.27028c1.09021,0.10811 2.18042,0.54054 3.27064,1.2973c1.09021,0.75676 1.68487,1.35135 1.78398,1.78379c0.79288,2.81082 1.31321,5.62164 1.56099,8.43245c0.24778,2.81082 0.37166,5.13515 0.37166,6.97299M233.27516,240.83781c0,-1.62163 -0.14867,-3.32433 -0.446,-5.10812c-0.29733,-1.78379 -0.89199,-3.5946 -1.78398,-5.43245c-0.19822,0.10811 -0.446,0.16216 -0.74333,0.16216c-0.39644,0 -0.71855,-0.05405 -0.96632,-0.16216c-0.24778,-0.10811 -0.47077,-0.16216 -0.66899,-0.16216c-1.18932,0 -2.13087,0.35135 -2.82464,1.05406c-0.69377,0.7027 -1.2141,1.62163 -1.56099,2.75676c-0.34689,1.13514 -0.56988,2.35136 -0.66899,3.64866c-0.09911,1.2973 -0.14867,2.54055 -0.14867,3.72974c0,1.18919 0.04956,2.51352 0.14867,3.97298c0.09911,1.45946 0.32211,2.83785 0.66899,4.13515c0.34689,1.2973 0.81766,2.40541 1.41232,3.32433c0.59466,0.91892 1.38754,1.37838 2.37864,1.37838c0.9911,0 1.83354,-0.56757 2.52731,-1.70271c0.69377,-1.13514 1.23888,-2.45947 1.63532,-3.97298c0.39644,-1.51352 0.66899,-3.00001 0.81766,-4.45947c0.14867,-1.45946 0.223,-2.51352 0.223,-3.16217z" data-paper-data="{&quot;elementType&quot;:&quot;letter&quot;,&quot;baseline&quot;:36.2,&quot;baselineProportion&quot;:1.419607843137255,&quot;fontSize&quot;:100}"></path><path d="M290.06529,293.86498c0,0.32433 -0.04956,0.86487 -0.14867,1.62163c-0.09911,0.75676 -0.27255,1.48649 -0.52033,2.18919c-0.24778,0.7027 -0.61944,1.35135 -1.11499,1.94595c-0.49555,0.5946 -1.13977,0.89189 -1.93265,0.89189c-2.27953,0 -3.76619,-0.75676 -4.45996,-2.27028c-0.69377,-1.51352 -1.04066,-3.1892 -1.04066,-5.02704c0,-0.43243 -0.09911,-1.13514 -0.29733,-2.10811c-0.19822,-0.97298 -0.39644,-2.05406 -0.59466,-3.24325c-0.19822,-1.18919 -0.39644,-2.37838 -0.59466,-3.56758c-0.19822,-1.18919 -0.29733,-2.21622 -0.29733,-3.08109c0,-1.62163 -0.07433,-3.45947 -0.223,-5.51353c-0.14867,-2.05406 -0.34689,-4.13515 -0.59466,-6.24326c-0.24778,-2.10811 -0.49555,-4.13515 -0.74333,-6.0811c-0.24778,-1.94595 -0.47077,-3.67569 -0.66899,-5.1892l-0.446,-0.48649c-1.09021,0.75676 -2.05654,1.67568 -2.89897,2.75676c-0.84244,1.08108 -1.68487,2.10811 -2.52731,3.08109c-0.84244,0.97298 -1.73443,1.78379 -2.67597,2.43244c-0.94155,0.64865 -2.05654,0.97298 -3.34497,0.97298c-1.78398,0 -3.36975,-0.67568 -4.75729,-2.02703c-1.38754,-1.35135 -2.52731,-2.94595 -3.4193,-4.7838c-0.89199,-1.83784 -1.56099,-3.70271 -2.00698,-5.59461c-0.446,-1.8919 -0.66899,-3.37839 -0.66899,-4.45947c0,-2.37838 0.47077,-5.08109 1.41232,-8.10813c0.94155,-3.02703 2.25476,-5.86488 3.93963,-8.51354c1.68487,-2.64866 3.69185,-4.8919 6.02094,-6.72975c2.32909,-1.83784 4.93073,-2.75676 7.80493,-2.75676c1.09021,0 2.08131,0.32433 2.97331,0.97298c0.89199,0.64865 1.70965,1.43244 2.45298,2.35136c0.74333,0.91892 1.38754,1.86487 1.93265,2.83785c0.54511,0.97298 1.01588,1.72973 1.41232,2.27028c1.09021,1.40541 1.93265,2.62163 2.52731,3.64866c0.59466,1.02703 0.89199,2.2973 0.89199,3.81082c0,0.32433 -0.14867,1.2973 -0.446,2.91893c-0.29733,1.62163 -0.446,2.97298 -0.446,4.05406c0,4.43244 0.12389,8.94597 0.37166,13.54058c0.24778,4.59461 0.56988,8.86489 0.96632,12.81084c0.39644,3.94596 0.79288,7.3784 1.18932,10.29732c0.39644,2.91893 0.69377,4.91893 0.89199,6.00002c0.19822,0.86487 0.59466,1.43244 1.18932,1.70271c0.59466,0.27027 0.89199,1.16217 0.89199,2.67568M277.13141,239.37835c-0.09911,-1.08108 -0.47077,-2.43244 -1.11499,-4.05406c-0.64422,-1.62163 -1.95743,-2.43244 -3.93963,-2.43244c-1.68487,0 -3.22108,0.78379 -4.60862,2.35136c-1.38754,1.56757 -2.57686,3.40541 -3.56797,5.51353c-0.9911,2.10811 -1.73443,4.16217 -2.22998,6.16218c-0.49555,2.00001 -0.74333,3.4865 -0.74333,4.45947c0,0.21622 0.07433,0.7027 0.223,1.45946c0.14867,0.75676 0.34689,1.56757 0.59466,2.43244c0.24778,0.86487 0.56988,1.62163 0.96632,2.27028c0.39644,0.64865 0.84244,0.97298 1.33799,0.97298c1.18932,0 2.52731,-0.89189 4.01396,-2.67568c1.48665,-1.78379 2.89897,-3.81082 4.23696,-6.0811c1.33799,-2.27028 2.47775,-4.43244 3.4193,-6.4865c0.94155,-2.05406 1.41232,-3.35136 1.41232,-3.8919z" data-paper-data="{&quot;elementType&quot;:&quot;letter&quot;,&quot;baseline&quot;:33.80000000000001,&quot;baselineProportion&quot;:0.7161016949152542,&quot;fontSize&quot;:100}"></path><path d="M347.74741,251.86487c0,0.97298 -0.59466,2.00001 -1.78398,3.08109c-1.18932,1.08108 -2.57686,2.08109 -4.16263,3.00001c-1.58576,0.91892 -3.1963,1.70271 -4.83162,2.35136c-1.63532,0.64865 -2.84942,0.97298 -3.6423,0.97298c-0.89199,0 -1.85832,-0.27027 -2.89897,-0.81081c-1.04066,-0.54054 -2.03176,-1.18919 -2.97331,-1.94595c-0.94155,-0.75676 -1.75921,-1.45946 -2.45298,-2.10811c-0.69377,-0.64865 -1.13977,-1.08108 -1.33799,-1.2973c-0.29733,0.32433 -0.74333,0.97298 -1.33799,1.94595c-0.59466,0.97298 -1.31321,2.02703 -2.15565,3.16217c-0.84244,1.13514 -1.73443,2.13514 -2.67597,3.00001c-0.94155,0.86487 -1.90787,1.2973 -2.89897,1.2973c-2.57686,0 -4.80684,-1.51352 -6.68994,-4.54055c-1.88309,-3.02703 -3.44408,-6.4865 -4.68296,-10.3784c-1.23888,-3.8919 -2.18042,-7.64867 -2.82464,-11.2703c-0.64422,-3.62163 -0.96632,-6.0811 -0.96632,-7.3784c0,-0.75676 0.37166,-1.37838 1.11499,-1.86487c0.74333,-0.48649 1.31321,-0.72973 1.70965,-0.72973c1.38754,0 2.32909,0.51351 2.82464,1.54054c0.49555,1.02703 0.74333,2.13514 0.74333,3.32433c0,0.97298 0.27255,2.70271 0.81766,5.1892c0.54511,2.48649 1.2141,5.02704 2.00698,7.62164c0.79288,2.5946 1.63532,4.8919 2.52731,6.89191c0.89199,2.00001 1.68487,3.00001 2.37864,3.00001c1.28843,0 2.40342,-0.89189 3.34497,-2.67568c0.94155,-1.78379 1.70965,-3.83785 2.30431,-6.16218c0.59466,-2.32433 1.04066,-4.54055 1.33799,-6.64867c0.29733,-2.10811 0.446,-3.4865 0.446,-4.13515c0,-0.10811 0.02478,-0.45946 0.07433,-1.05406c0.04956,-0.5946 0.12389,-1.21622 0.223,-1.86487c0.09911,-0.64865 0.17344,-1.24325 0.223,-1.78379c0.04956,-0.54054 0.07433,-0.91892 0.07433,-1.13514c0,-0.75676 -0.14867,-1.27027 -0.446,-1.54054c-0.29733,-0.27027 -0.446,-0.83784 -0.446,-1.70271c0,-0.64865 0.29733,-1.27027 0.89199,-1.86487c0.59466,-0.5946 1.88309,-0.89189 3.8653,-0.89189c0.79288,0 1.41232,0.24324 1.85832,0.72973c0.446,0.48649 0.7681,1.05406 0.96632,1.70271c0.19822,0.64865 0.32211,1.27027 0.37166,1.86487c0.04956,0.5946 0.07433,1 0.07433,1.21622c0,0.10811 -0.04956,0.86487 -0.14867,2.27028c-0.09911,1.40541 -0.17344,2.94595 -0.223,4.62163c-0.04956,1.67568 -0.12389,3.27028 -0.223,4.7838c-0.09911,1.51352 -0.14867,2.43244 -0.14867,2.75676c0,0.32433 0.14867,0.97298 0.446,1.94595c0.29733,0.97298 0.66899,1.97298 1.11499,3.00001c0.446,1.02703 0.96632,1.94595 1.56099,2.75676c0.59466,0.81081 1.23888,1.21622 1.93265,1.21622c1.18932,0 2.30431,-0.18919 3.34497,-0.56757c1.04066,-0.37838 2.03176,-0.81081 2.97331,-1.2973c0.94155,-0.48649 1.80876,-0.91892 2.60164,-1.2973c0.79288,-0.37838 1.53621,-0.56757 2.22998,-0.56757c0.89199,0 1.70965,0.21622 2.45298,0.64865c0.74333,0.43243 1.11499,0.97298 1.11499,1.62163z" data-paper-data="{&quot;elementType&quot;:&quot;letter&quot;,&quot;baseline&quot;:33.5,&quot;baselineProportion&quot;:1.3562753036437245,&quot;fontSize&quot;:100}"></path><path d="M367.37123,264.83788c0,0.75676 -0.52033,1.40541 -1.56099,1.94595c-1.04066,0.54054 -1.80876,0.81081 -2.30431,0.81081c-0.9911,0 -1.88309,-0.7027 -2.67597,-2.10811c-0.79288,-1.40541 -1.48665,-3.02703 -2.08131,-4.86488c-0.59466,-1.83784 -1.09021,-3.5946 -1.48665,-5.27028c-0.39644,-1.67568 -0.69377,-2.83785 -0.89199,-3.4865c-0.29733,-1.08108 -0.69377,-2.37838 -1.18932,-3.8919c-0.49555,-1.51352 -0.96632,-2.97298 -1.41232,-4.37839c-0.446,-1.40541 -0.81766,-2.64866 -1.11499,-3.72974c-0.29733,-1.08108 -0.446,-1.67568 -0.446,-1.78379c0,-1.51352 0.27255,-2.91893 0.81766,-4.21623c0.54511,-1.2973 1.2141,-1.94595 2.00698,-1.94595c0.89199,0 1.83354,0.75676 2.82464,2.27028c0.9911,1.51352 1.95743,3.43244 2.89897,5.75677c0.94155,2.32433 1.80876,4.86488 2.60164,7.62164c0.79288,2.75676 1.48665,5.35137 2.08131,7.7838c0.59466,2.43244 1.06543,4.54055 1.41232,6.32434c0.34689,1.78379 0.52033,2.83785 0.52033,3.16217zM362.46527,204.18907c0,0.21622 -0.34689,0.64865 -1.04066,1.2973c-0.69377,0.64865 -1.51143,1.32433 -2.45298,2.02703c-0.94155,0.7027 -1.90787,1.32433 -2.89897,1.86487c-0.9911,0.54054 -1.78398,0.81081 -2.37864,0.81081c-0.39644,0 -0.91677,-0.02703 -1.56099,-0.08108c-0.64422,-0.05405 -1.28843,-0.24324 -1.93265,-0.56757c-0.64422,-0.32433 -1.2141,-0.78379 -1.70965,-1.37838c-0.49555,-0.5946 -0.74333,-1.37838 -0.74333,-2.35136c0,-1.51352 0.49555,-2.94595 1.48665,-4.29731c0.9911,-1.35135 2.27953,-2.02703 3.8653,-2.02703c0.29733,0 0.96632,0.13514 2.00698,0.40541c1.04066,0.27027 2.10609,0.62162 3.1963,1.05406c1.09021,0.43243 2.05654,0.91892 2.89897,1.45946c0.84244,0.54054 1.26365,1.13514 1.26365,1.78379" data-paper-data="{&quot;elementType&quot;:&quot;letter&quot;,&quot;baseline&quot;:48.900000000000006,&quot;baselineProportion&quot;:1.1642857142857144,&quot;fontSize&quot;:100}"></path><path d="M410.18682,257.3784c0,1.83784 -0.56988,3.43244 -1.70965,4.7838c-1.13977,1.35135 -2.57686,2.48649 -4.31129,3.40541c-1.73443,0.91892 -3.6423,1.64865 -5.72361,2.18919c-2.08131,0.54054 -4.06352,0.94595 -5.94661,1.21622c-1.88309,0.27027 -3.54319,0.43243 -4.98029,0.48649c-1.4371,0.05405 -2.35387,0.08108 -2.75031,0.08108c-2.18042,0 -3.8653,-0.37838 -5.05462,-1.13514c-1.18932,-0.75676 -1.78398,-2.10811 -1.78398,-4.05406c0,-0.64865 0.04956,-1.21622 0.14867,-1.70271c0.09911,-0.48649 0.49555,-0.72973 1.18932,-0.72973c0.29733,0 0.79288,0.08108 1.48665,0.24324c0.69377,0.16216 1.23888,0.24324 1.63532,0.24324c0.39644,0 1.6601,-0.08108 3.79096,-0.24324c2.13087,-0.16216 4.4104,-0.45946 6.8386,-0.89189c2.4282,-0.43243 4.60862,-1.05406 6.54127,-1.86487c1.93265,-0.81081 2.89897,-1.86487 2.89897,-3.16217c0,-0.21622 -1.01588,-0.89189 -3.04764,-2.02703c-2.03176,-1.13514 -5.0794,-3.05406 -9.14291,-5.75677c-3.17153,-2.16217 -5.4015,-4.35136 -6.68994,-6.56758c-1.28843,-2.21622 -1.93265,-5.21623 -1.93265,-9.00002c0,-2.37838 0.47077,-4.32434 1.41232,-5.83785c0.94155,-1.51352 2.22998,-2.70271 3.8653,-3.56758c1.63532,-0.86487 3.51841,-1.48649 5.64928,-1.86487c2.13087,-0.37838 4.38563,-0.56757 6.76427,-0.56757c0.19822,0 0.81766,0.10811 1.85832,0.32433c1.04066,0.21622 2.15565,0.56757 3.34497,1.05406c1.18932,0.48649 2.25476,1.08108 3.1963,1.78379c0.94155,0.7027 1.41232,1.48649 1.41232,2.35136c0,0.21622 -0.17344,0.54054 -0.52033,0.97298c-0.34689,0.43243 -0.91677,1.24325 -1.70965,2.43244c-0.29733,-0.10811 -0.81766,-0.27027 -1.56099,-0.48649c-0.74333,-0.21622 -1.58576,-0.45946 -2.52731,-0.72973c-0.94155,-0.27027 -1.90787,-0.48649 -2.89897,-0.64865c-0.9911,-0.16216 -1.78398,-0.24324 -2.37864,-0.24324c-2.57686,0 -4.65818,0.51351 -6.24394,1.54054c-1.58576,1.02703 -2.37864,3.00001 -2.37864,5.91893c0,1.40541 0.52033,2.70271 1.56099,3.8919c1.04066,1.18919 2.35387,2.2973 3.93963,3.32433c1.58576,1.02703 3.29541,2.05406 5.12895,3.08109c1.83354,1.02703 3.54319,2.13514 5.12895,3.32433c1.58576,1.18919 2.89897,2.45947 3.93963,3.81082c1.04066,1.35135 1.56099,2.8919 1.56099,4.62163z" data-paper-data="{&quot;elementType&quot;:&quot;letter&quot;,&quot;baseline&quot;:35.599999999999994,&quot;baselineProportion&quot;:1.1906354515050168,&quot;fontSize&quot;:100}"></path></g></g></g></g></g></svg>