<svg version="1.1" xmlns="http://www.w3.org/2000/svg" xmlns:xlink="http://www.w3.org/1999/xlink" width="500" height="500"><g data-paper-data="{&quot;description&quot;:&quot;Logo for Croquis\n================\n\nThis logo was generated by MarkMaker at http://emblemmatic.org/markmaker/ and may be composed of elements designed by others.\n\nThe font is Reenie Beanie designed by James Grieshaber and released under the OFL license via Google Fonts: https://www.google.com/fonts/specimen/Reenie%20Beanie. The font includes this copyright statement: Copyright (c) 2010 Typeco (james@typeco.com). All rights reserved.\n\nMarkMaker uses semantic data from the Princeton University WordNet database http://wordnet.princeton.edu and font descriptions from Google Fonts https://www.google.com/fonts.&quot;}" fill="#233131" fill-rule="nonzero" stroke="none" stroke-width="1" stroke-linecap="butt" stroke-linejoin="miter" stroke-miterlimit="10" stroke-dasharray="" stroke-dashoffset="0" font-family="none" font-weight="none" font-size="none" text-anchor="none" style="mix-blend-mode: normal"><g data-paper-data="{&quot;elementType&quot;:&quot;logo&quot;}"><g data-paper-data="{&quot;elementType&quot;:&quot;text&quot;}"><g data-paper-data="{&quot;baseline&quot;:48.900000000000006,&quot;elementType&quot;:&quot;row&quot;}"><g data-paper-data="{&quot;baselineProportion&quot;:0.7849117174959871,&quot;fontSize&quot;:100,&quot;baseline&quot;:48.900000000000006,&quot;elementType&quot;:&quot;word&quot;}"><path d="M112.84253,242.47351c0,1.36402 -0.36536,2.77676 -1.09609,4.23822c-0.73073,1.46145 -1.63196,2.92291 -2.70369,4.38436c-1.07173,1.46145 -2.2409,2.84984 -3.50749,4.16514c-1.26659,1.31531 -2.43576,2.46011 -3.50749,3.43442c-2.63062,2.33833 -5.33431,4.55487 -8.11107,6.64962c-2.77676,2.09475 -5.65096,3.97028 -8.62258,5.6266c-2.97162,1.65631 -6.06503,2.97162 -9.28023,3.94593c-3.2152,0.9743 -6.57654,1.46145 -10.08403,1.46145c-10.6199,0 -15.92985,-5.4561 -15.92985,-16.36829c0,-1.07173 0.43844,-3.16648 1.31531,-6.28425c0.87687,-3.11777 1.99732,-6.67397 3.36134,-10.66862c1.36402,-3.99464 2.97162,-8.18414 4.8228,-12.56851c1.85118,-4.38436 3.75107,-8.40336 5.69967,-12.057c1.94861,-3.65364 3.87285,-6.64962 5.77274,-8.98794c1.89989,-2.33833 3.67799,-3.50749 5.33431,-3.50749c1.07173,0 1.87553,0.34101 2.4114,1.02302c0.53587,0.68201 0.8038,1.41274 0.8038,2.19218c-0.09743,0.58458 -0.77944,1.82682 -2.04604,3.72671c-1.26659,1.89989 -2.5819,3.82414 -3.94593,5.77274c-0.19486,0.29229 -0.53587,0.77944 -1.02302,1.46145c-0.48715,0.68201 -0.9743,1.36402 -1.46145,2.04604c-0.58458,0.77944 -1.16916,1.6076 -1.75374,2.48447c-0.38972,0.68201 -1.24224,2.4114 -2.55754,5.18816c-1.31531,2.77676 -2.70369,5.99196 -4.16514,9.6456c-1.46145,3.65364 -2.77676,7.45342 -3.94593,11.39934c-1.16916,3.94593 -1.75374,7.38034 -1.75374,10.30325c0,1.65631 0.36536,2.97162 1.09609,3.94593c0.73073,0.9743 1.6076,1.70503 2.63062,2.19218c1.02302,0.48715 2.09475,0.8038 3.2152,0.94995c1.12045,0.14615 2.11911,0.21922 2.99598,0.21922c3.60492,0 7.42906,-0.8038 11.47242,-2.4114c4.04336,-1.6076 7.91621,-3.72671 11.61856,-6.35733c3.70235,-2.63062 7.11241,-5.67531 10.23018,-9.13409c3.11777,-3.45877 5.55353,-7.03934 7.30727,-10.74169c0.38972,-0.68201 0.8038,-1.12045 1.24224,-1.31531c0.43844,-0.19486 0.85251,-0.29229 1.24224,-0.29229c0.77944,0 1.46145,0.53587 2.04604,1.6076c0.58458,1.07173 0.87687,1.94861 0.87687,2.63062z" data-paper-data="{&quot;elementType&quot;:&quot;letter&quot;,&quot;baseline&quot;:47.900000000000006,&quot;baselineProportion&quot;:0.9937759336099585,&quot;fontSize&quot;:100}"></path><path d="M173.93131,231.36646c0,0.68201 -0.29229,1.24224 -0.87687,1.68067c-0.58458,0.43844 -1.26659,0.8038 -2.04604,1.09609c-0.77944,0.29229 -1.55888,0.51151 -2.33833,0.65765c-0.77944,0.14615 -1.41274,0.21922 -1.89989,0.21922c-1.46145,0 -2.43576,-0.09743 -2.92291,-0.29229c-0.48715,-0.19486 -0.87687,-0.29229 -1.16916,-0.29229c-2.43576,0 -4.38436,0.19486 -5.84582,0.58458c-1.46145,0.38972 -2.60626,1.02302 -3.43442,1.89989c-0.82816,0.87687 -1.36402,1.97296 -1.6076,3.28827c-0.24358,1.31531 -0.36536,2.89855 -0.36536,4.74973c0,3.11777 0.12179,5.60224 0.36536,7.45342c0.24358,1.85118 0.48715,3.36134 0.73073,4.53051c0.24358,1.16916 0.48715,2.07039 0.73073,2.70369c0.24358,0.6333 0.36536,1.24224 0.36536,1.82682c0,0.77944 -0.41408,1.6076 -1.24224,2.48447c-0.82816,0.87687 -1.58324,1.31531 -2.26525,1.31531c-1.16916,0 -2.21654,-1.04738 -3.14213,-3.14213c-0.92559,-2.09475 -1.70503,-4.57922 -2.33833,-7.45342c-0.6333,-2.87419 -1.14481,-5.72403 -1.53453,-8.54951c-0.38972,-2.82548 -0.58458,-4.96894 -0.58458,-6.4304c0,-1.65631 0.14615,-3.23956 0.43844,-4.74973c0.29229,-1.51017 0.68201,-2.82548 1.16916,-3.94593c0.48715,-1.12045 1.02302,-2.02168 1.6076,-2.70369c0.58458,-0.68201 1.16916,-1.02302 1.75374,-1.02302c0.48715,0 0.87687,0.1705 1.16916,0.51151c0.29229,0.34101 0.53587,0.73073 0.73073,1.16916c0.19486,0.43844 0.41408,0.82816 0.65765,1.16916c0.24358,0.34101 0.56022,0.51151 0.94995,0.51151c0.87687,0 2.28961,-0.43844 4.23822,-1.31531c1.94861,-0.87687 4.33565,-1.31531 7.16113,-1.31531c2.63062,0 4.60358,0.07307 5.91889,0.21922c1.31531,0.14615 2.60626,0.46279 3.87285,0.94995c0.29229,0.09743 0.65765,0.31665 1.09609,0.65765c0.43844,0.34101 0.65765,0.85251 0.65765,1.53453z" data-paper-data="{&quot;elementType&quot;:&quot;letter&quot;,&quot;baseline&quot;:33.30000000000001,&quot;baselineProportion&quot;:1.2807692307692304,&quot;fontSize&quot;:100}"></path><path d="M225.95908,244.3734c0,2.14347 -0.29229,4.1895 -0.87687,6.13811c-0.58458,1.94861 -1.36402,3.65364 -2.33833,5.11509c-0.9743,1.46145 -2.11911,2.60626 -3.43442,3.43442c-1.31531,0.82816 -2.75241,1.24224 -4.31129,1.24224c-2.72805,0 -4.87151,-0.77944 -6.4304,-2.33833c-1.55888,-1.55888 -2.75241,-3.36134 -3.58056,-5.40738c-0.82816,-2.04604 -1.36402,-4.11643 -1.6076,-6.21118c-0.24358,-2.09475 -0.36536,-3.67799 -0.36536,-4.74973c0,-1.75374 0.26793,-3.72671 0.8038,-5.91889c0.53587,-2.19218 1.26659,-4.21386 2.19218,-6.06503c0.92559,-1.85118 1.97296,-3.41006 3.14213,-4.67665c1.16916,-1.26659 2.38704,-1.89989 3.65364,-1.89989c0.29229,0 0.75508,0.09743 1.38838,0.29229c0.6333,0.19486 1.29095,0.48715 1.97296,0.87687c0.68201,0.38972 1.29095,0.87687 1.82682,1.46145c0.53587,0.58458 0.90123,1.26659 1.09609,2.04604c1.07173,0.09743 2.14347,0.48715 3.2152,1.16916c1.07173,0.68201 1.65631,1.21788 1.75374,1.6076c0.77944,2.53319 1.29095,5.06637 1.53453,7.59956c0.24358,2.53319 0.36536,4.62794 0.36536,6.28425M219.38254,241.74278c0,-1.46145 -0.14615,-2.99598 -0.43844,-4.60358c-0.29229,-1.6076 -0.87687,-3.23956 -1.75374,-4.89587c-0.19486,0.09743 -0.43844,0.14615 -0.73073,0.14615c-0.38972,0 -0.70637,-0.04872 -0.94995,-0.14615c-0.24358,-0.09743 -0.46279,-0.14615 -0.65765,-0.14615c-1.16916,0 -2.09475,0.31665 -2.77676,0.94995c-0.68201,0.6333 -1.19352,1.46145 -1.53453,2.48447c-0.34101,1.02302 -0.56022,2.11911 -0.65765,3.28827c-0.09743,1.16916 -0.14615,2.28961 -0.14615,3.36134c0,1.07173 0.04872,2.26525 0.14615,3.58056c0.09743,1.31531 0.31665,2.55754 0.65765,3.72671c0.34101,1.16916 0.8038,2.16782 1.38838,2.99598c0.58458,0.82816 1.36402,1.24224 2.33833,1.24224c0.9743,0 1.80246,-0.51151 2.48447,-1.53453c0.68201,-1.02302 1.21788,-2.21654 1.6076,-3.58056c0.38972,-1.36402 0.65765,-2.70369 0.8038,-4.019c0.14615,-1.31531 0.21922,-2.26525 0.21922,-2.84984z" data-paper-data="{&quot;elementType&quot;:&quot;letter&quot;,&quot;baseline&quot;:36.2,&quot;baselineProportion&quot;:1.419607843137255,&quot;fontSize&quot;:100}"></path><path d="M289.38619,289.53233c0,0.29229 -0.04872,0.77944 -0.14615,1.46145c-0.09743,0.68201 -0.26793,1.33967 -0.51151,1.97296c-0.24358,0.6333 -0.60894,1.21788 -1.09609,1.75374c-0.48715,0.53587 -1.12045,0.8038 -1.89989,0.8038c-2.2409,0 -3.70235,-0.68201 -4.38436,-2.04604c-0.68201,-1.36402 -1.02302,-2.87419 -1.02302,-4.53051c0,-0.38972 -0.09743,-1.02302 -0.29229,-1.89989c-0.19486,-0.87687 -0.38972,-1.85118 -0.58458,-2.92291c-0.19486,-1.07173 -0.38972,-2.14347 -0.58458,-3.2152c-0.19486,-1.07173 -0.29229,-1.99732 -0.29229,-2.77676c0,-1.46145 -0.07307,-3.11777 -0.21922,-4.96894c-0.14615,-1.85118 -0.34101,-3.72671 -0.58458,-5.6266c-0.24358,-1.89989 -0.48715,-3.72671 -0.73073,-5.48045c-0.24358,-1.75374 -0.46279,-3.31263 -0.65765,-4.67665l-0.43844,-0.43844c-1.07173,0.68201 -2.02168,1.51017 -2.84984,2.48447c-0.82816,0.9743 -1.65631,1.89989 -2.48447,2.77676c-0.82816,0.87687 -1.70503,1.6076 -2.63062,2.19218c-0.92559,0.58458 -2.02168,0.87687 -3.28827,0.87687c-1.75374,0 -3.31263,-0.60894 -4.67665,-1.82682c-1.36402,-1.21788 -2.48447,-2.65498 -3.36134,-4.31129c-0.87687,-1.65631 -1.53453,-3.33699 -1.97296,-5.04202c-0.43844,-1.70503 -0.65765,-3.0447 -0.65765,-4.019c0,-2.14347 0.46279,-4.57922 1.38838,-7.30727c0.92559,-2.72805 2.21654,-5.28559 3.87285,-7.67263c1.65631,-2.38704 3.62928,-4.40872 5.91889,-6.06503c2.28961,-1.65631 4.84716,-2.48447 7.67263,-2.48447c1.07173,0 2.04604,0.29229 2.92291,0.87687c0.87687,0.58458 1.68067,1.29095 2.4114,2.11911c0.73073,0.82816 1.36402,1.68067 1.89989,2.55754c0.53587,0.87687 0.99866,1.55888 1.38838,2.04604c1.07173,1.26659 1.89989,2.36268 2.48447,3.28827c0.58458,0.92559 0.87687,2.07039 0.87687,3.43442c0,0.29229 -0.14615,1.16916 -0.43844,2.63062c-0.29229,1.46145 -0.43844,2.67933 -0.43844,3.65364c0,3.99464 0.12179,8.06236 0.36536,12.20314c0.24358,4.14079 0.56022,7.98928 0.94995,11.54549c0.38972,3.55621 0.77944,6.64962 1.16916,9.28023c0.38972,2.63062 0.68201,4.43308 0.87687,5.40738c0.19486,0.77944 0.58458,1.29095 1.16916,1.53453c0.58458,0.24358 0.87687,1.04738 0.87687,2.4114M276.67154,240.42748c-0.09743,-0.9743 -0.46279,-2.19218 -1.09609,-3.65364c-0.6333,-1.46145 -1.92425,-2.19218 -3.87285,-2.19218c-1.65631,0 -3.16648,0.70637 -4.53051,2.11911c-1.36402,1.41274 -2.53319,3.06905 -3.50749,4.96894c-0.9743,1.89989 -1.70503,3.75107 -2.19218,5.55353c-0.48715,1.80246 -0.73073,3.14213 -0.73073,4.019c0,0.19486 0.07307,0.6333 0.21922,1.31531c0.14615,0.68201 0.34101,1.41274 0.58458,2.19218c0.24358,0.77944 0.56022,1.46145 0.94995,2.04604c0.38972,0.58458 0.82816,0.87687 1.31531,0.87687c1.16916,0 2.48447,-0.8038 3.94593,-2.4114c1.46145,-1.6076 2.84984,-3.43442 4.16514,-5.48045c1.31531,-2.04604 2.43576,-3.99464 3.36134,-5.84582c0.92559,-1.85118 1.38838,-3.02034 1.38838,-3.50749z" data-paper-data="{&quot;elementType&quot;:&quot;letter&quot;,&quot;baseline&quot;:33.80000000000001,&quot;baselineProportion&quot;:0.7161016949152542,&quot;fontSize&quot;:100}"></path><path d="M360.26672,251.68067c0,0.87687 -0.58458,1.80246 -1.75374,2.77676c-1.16916,0.9743 -2.53319,1.87553 -4.09207,2.70369c-1.55888,0.82816 -3.14213,1.53453 -4.74973,2.11911c-1.6076,0.58458 -2.80112,0.87687 -3.58056,0.87687c-0.87687,0 -1.82682,-0.24358 -2.84984,-0.73073c-1.02302,-0.48715 -1.99732,-1.07173 -2.92291,-1.75374c-0.92559,-0.68201 -1.72939,-1.31531 -2.4114,-1.89989c-0.68201,-0.58458 -1.12045,-0.9743 -1.31531,-1.16916c-0.29229,0.29229 -0.73073,0.87687 -1.31531,1.75374c-0.58458,0.87687 -1.29095,1.82682 -2.11911,2.84984c-0.82816,1.02302 -1.70503,1.92425 -2.63062,2.70369c-0.92559,0.77944 -1.87553,1.16916 -2.84984,1.16916c-2.53319,0 -4.72537,-1.36402 -6.57654,-4.09207c-1.85118,-2.72805 -3.3857,-5.84582 -4.60358,-9.35331c-1.21788,-3.50749 -2.14347,-6.89319 -2.77676,-10.15711c-0.6333,-3.26391 -0.94995,-5.48045 -0.94995,-6.64962c0,-0.68201 0.36536,-1.24224 1.09609,-1.68067c0.73073,-0.43844 1.29095,-0.65765 1.68067,-0.65765c1.36402,0 2.28961,0.46279 2.77676,1.38838c0.48715,0.92559 0.73073,1.92425 0.73073,2.99598c0,0.87687 0.26793,2.43576 0.8038,4.67665c0.53587,2.2409 1.19352,4.53051 1.97296,6.86883c0.77944,2.33833 1.6076,4.40872 2.48447,6.21118c0.87687,1.80246 1.65631,2.70369 2.33833,2.70369c1.26659,0 2.36268,-0.8038 3.28827,-2.4114c0.92559,-1.6076 1.68067,-3.45877 2.26525,-5.55353c0.58458,-2.09475 1.02302,-4.09207 1.31531,-5.99196c0.29229,-1.89989 0.43844,-3.14213 0.43844,-3.72671c0,-0.09743 0.02436,-0.41408 0.07307,-0.94995c0.04872,-0.53587 0.12179,-1.09609 0.21922,-1.68067c0.09743,-0.58458 0.1705,-1.12045 0.21922,-1.6076c0.04872,-0.48715 0.07307,-0.82816 0.07307,-1.02302c0,-0.68201 -0.14615,-1.14481 -0.43844,-1.38838c-0.29229,-0.24358 -0.43844,-0.75508 -0.43844,-1.53453c0,-0.58458 0.29229,-1.14481 0.87687,-1.68067c0.58458,-0.53587 1.85118,-0.8038 3.79978,-0.8038c0.77944,0 1.38838,0.21922 1.82682,0.65765c0.43844,0.43844 0.75508,0.94995 0.94995,1.53453c0.19486,0.58458 0.31665,1.14481 0.36536,1.68067c0.04872,0.53587 0.07307,0.90123 0.07307,1.09609c0,0.09743 -0.04872,0.77944 -0.14615,2.04604c-0.09743,1.26659 -0.1705,2.65498 -0.21922,4.16514c-0.04872,1.51017 -0.12179,2.94727 -0.21922,4.31129c-0.09743,1.36402 -0.14615,2.19218 -0.14615,2.48447c0,0.29229 0.14615,0.87687 0.43844,1.75374c0.29229,0.87687 0.65765,1.7781 1.09609,2.70369c0.43844,0.92559 0.94995,1.75374 1.53453,2.48447c0.58458,0.73073 1.21788,1.09609 1.89989,1.09609c1.16916,0 2.26525,-0.1705 3.28827,-0.51151c1.02302,-0.34101 1.99732,-0.73073 2.92291,-1.16916c0.92559,-0.43844 1.7781,-0.82816 2.55754,-1.16916c0.77944,-0.34101 1.51017,-0.51151 2.19218,-0.51151c0.87687,0 1.68067,0.19486 2.4114,0.58458c0.73073,0.38972 1.09609,0.87687 1.09609,1.46145z" data-paper-data="{&quot;elementType&quot;:&quot;letter&quot;,&quot;baseline&quot;:33.5,&quot;baselineProportion&quot;:1.3562753036437245,&quot;fontSize&quot;:100}"></path><path d="M393.73402,263.37231c0,0.68201 -0.51151,1.26659 -1.53453,1.75374c-1.02302,0.48715 -1.7781,0.73073 -2.26525,0.73073c-0.9743,0 -1.85118,-0.6333 -2.63062,-1.89989c-0.77944,-1.26659 -1.46145,-2.72805 -2.04604,-4.38436c-0.58458,-1.65631 -1.07173,-3.23956 -1.46145,-4.74973c-0.38972,-1.51017 -0.68201,-2.55754 -0.87687,-3.14213c-0.29229,-0.9743 -0.68201,-2.14347 -1.16916,-3.50749c-0.48715,-1.36402 -0.94995,-2.67933 -1.38838,-3.94593c-0.43844,-1.26659 -0.8038,-2.38704 -1.09609,-3.36134c-0.29229,-0.9743 -0.43844,-1.51017 -0.43844,-1.6076c0,-1.36402 0.26793,-2.63062 0.8038,-3.79978c0.53587,-1.16916 1.19352,-1.75374 1.97296,-1.75374c0.87687,0 1.80246,0.68201 2.77676,2.04604c0.9743,1.36402 1.92425,3.09341 2.84984,5.18816c0.92559,2.09475 1.7781,4.38436 2.55754,6.86883c0.77944,2.48447 1.46145,4.8228 2.04604,7.01498c0.58458,2.19218 1.04738,4.09207 1.38838,5.69967c0.34101,1.6076 0.51151,2.55754 0.51151,2.84984zM388.91122,208.71392c0,0.19486 -0.34101,0.58458 -1.02302,1.16916c-0.68201,0.58458 -1.48581,1.19352 -2.4114,1.82682c-0.92559,0.6333 -1.87553,1.19352 -2.84984,1.68067c-0.9743,0.48715 -1.75374,0.73073 -2.33833,0.73073c-0.38972,0 -0.90123,-0.02436 -1.53453,-0.07307c-0.6333,-0.04872 -1.26659,-0.21922 -1.89989,-0.51151c-0.6333,-0.29229 -1.19352,-0.70637 -1.68067,-1.24224c-0.48715,-0.53587 -0.73073,-1.24224 -0.73073,-2.11911c0,-1.36402 0.48715,-2.65498 1.46145,-3.87285c0.9743,-1.21788 2.2409,-1.82682 3.79978,-1.82682c0.29229,0 0.94995,0.12179 1.97296,0.36536c1.02302,0.24358 2.07039,0.56022 3.14213,0.94995c1.07173,0.38972 2.02168,0.82816 2.84984,1.31531c0.82816,0.48715 1.24224,1.02302 1.24224,1.6076" data-paper-data="{&quot;elementType&quot;:&quot;letter&quot;,&quot;baseline&quot;:48.900000000000006,&quot;baselineProportion&quot;:1.1642857142857144,&quot;fontSize&quot;:100}"></path><path d="M450,256.64962c0,1.65631 -0.56022,3.09341 -1.68067,4.31129c-1.12045,1.21788 -2.53319,2.2409 -4.23822,3.06905c-1.70503,0.82816 -3.58056,1.48581 -5.6266,1.97296c-2.04604,0.48715 -3.99464,0.85251 -5.84582,1.09609c-1.85118,0.24358 -3.48313,0.38972 -4.89587,0.43844c-1.41274,0.04872 -2.31397,0.07307 -2.70369,0.07307c-2.14347,0 -3.79978,-0.34101 -4.96894,-1.02302c-1.16916,-0.68201 -1.75374,-1.89989 -1.75374,-3.65364c0,-0.58458 0.04872,-1.09609 0.14615,-1.53453c0.09743,-0.43844 0.48715,-0.65765 1.16916,-0.65765c0.29229,0 0.77944,0.07307 1.46145,0.21922c0.68201,0.14615 1.21788,0.21922 1.6076,0.21922c0.38972,0 1.63196,-0.07307 3.72671,-0.21922c2.09475,-0.14615 4.33565,-0.41408 6.72269,-0.8038c2.38704,-0.38972 4.53051,-0.94995 6.4304,-1.68067c1.89989,-0.73073 2.84984,-1.68067 2.84984,-2.84984c0,-0.19486 -0.99866,-0.8038 -2.99598,-1.82682c-1.99732,-1.02302 -4.9933,-2.75241 -8.98794,-5.18816c-3.11777,-1.94861 -5.30995,-3.92157 -6.57654,-5.91889c-1.26659,-1.99732 -1.89989,-4.70101 -1.89989,-8.11107c0,-2.14347 0.46279,-3.89721 1.38838,-5.26123c0.92559,-1.36402 2.19218,-2.43576 3.79978,-3.2152c1.6076,-0.77944 3.45877,-1.33967 5.55353,-1.68067c2.09475,-0.34101 4.31129,-0.51151 6.64962,-0.51151c0.19486,0 0.8038,0.09743 1.82682,0.29229c1.02302,0.19486 2.11911,0.51151 3.28827,0.94995c1.16916,0.43844 2.21654,0.9743 3.14213,1.6076c0.92559,0.6333 1.38838,1.33967 1.38838,2.11911c0,0.19486 -0.1705,0.48715 -0.51151,0.87687c-0.34101,0.38972 -0.90123,1.12045 -1.68067,2.19218c-0.29229,-0.09743 -0.8038,-0.24358 -1.53453,-0.43844c-0.73073,-0.19486 -1.55888,-0.41408 -2.48447,-0.65765c-0.92559,-0.24358 -1.87553,-0.43844 -2.84984,-0.58458c-0.9743,-0.14615 -1.75374,-0.21922 -2.33833,-0.21922c-2.53319,0 -4.57922,0.46279 -6.13811,1.38838c-1.55888,0.92559 -2.33833,2.70369 -2.33833,5.33431c0,1.26659 0.51151,2.43576 1.53453,3.50749c1.02302,1.07173 2.31397,2.07039 3.87285,2.99598c1.55888,0.92559 3.23956,1.85118 5.04202,2.77676c1.80246,0.92559 3.48313,1.92425 5.04202,2.99598c1.55888,1.07173 2.84984,2.21654 3.87285,3.43442c1.02302,1.21788 1.53453,2.60626 1.53453,4.16514z" data-paper-data="{&quot;elementType&quot;:&quot;letter&quot;,&quot;baseline&quot;:35.599999999999994,&quot;baselineProportion&quot;:1.1906354515050168,&quot;fontSize&quot;:100}"></path></g></g></g></g></g></svg>